<?xml version="1.0" encoding="UTF-8"?>
<svg id="_레이어_2" data-name="레이어 2" xmlns="http://www.w3.org/2000/svg" viewBox="0 0 902.52 398.36">
  <defs>
    <style>
      .cls-1 {
        fill: #231815;
      }
    </style>
  </defs>
  <g id="_레이어_1-2" data-name="레이어 1">
    <g>
      <path class="cls-1" d="M255.1,370.45c-3.16,3.41-9.37,1.26-9.23-3.13.05-1.61,1.34-4.52,1.91-6.2,2.11-6.22,12.25-26.62,11.97-31.17-.06-.89-.12-1.47-.92-2.01-4,1.96-6.94,5.86-9.69,9.25-9.53,11.75-17.01,25.53-26.17,37.59-2,2.18-5.22,1.57-7.21-.3s-1.31-3.08-.68-5.3c3.75-13.37,11.19-27.68,14.18-40.97.07-.33.18-.93-.27-.84-1.19,2.66-5,2.69-4.25-.18.39-1.49,6.93-6.86,8.71-7.42,3.64-1.14,7.96.25,8.48,4.41.92,7.38-5.61,18.41-7.49,25.59,4.79-5.05,8.22-11.42,12.91-16.67,2.31-2.59,8.07-8.67,11.19-9.48,7.55-1.96,10.54,5.04,10.32,11.41-.13,3.57-2.75,7.21-2.55,10.71,4.6-6.67,17.42-26.59,25.9-26.96,4.76-.21,7.12,4.05,7.17,8.29.17,12.6-16.32,38.15-20.73,51.7-4.8,14.75,3.49,8.59,9.5,2.03,10.02-10.94,18.49-25.27,25.67-38.09,4.99-8.91,14.82-21.66,25.6-23.23,8.51-1.24,15.09,1.82,13.93,11.34,5.09-1.37,9.22-.77,7.33,5.33-2.49,8.05-8.17,17.25-11.46,25.3-2.04,5-4.57,10.45-4.49,15.9,2.32,2.44,18.26-14.3,20.09-16.39,9.71-11.02,17.16-23.92,25.57-35.92.91-2.23-1.76-4.15-2.87-6.28-2.35-4.5-2.66-8.17-.88-12.96,4.49-12.08,23.34-12.08,16.39,5.47-.83,2.08-5.13,8.08-4.8,9.37,5.06,6.75,14.04,8.08,10.54,18.2-4.32,12.51-15.88,25.39-20.08,37.94-1.32,3.95-1.22,6.28,3.46,4.61,13.02-4.64,38.79-40.85,45.88-53.5,3.26-5.81,1.72-3.39-1.07-7.46-3.45-5.03-3.78-11.05-1-16.44s11.4-10.52,15.92-4.22-1.94,15.77-5.37,20.99c4.69,5.59,12.88,6.85,11.96,15.51-1.16,10.95-15.41,28.1-19.06,39.53-1.2,3.77-2.3,7.26,3.14,6,7.69-1.78,33.63-27.57,38.8-34.72,4.06-5.61,11.57-23.96,16.54-26.54,3.35-1.74,7.84.43,8.71,4.14-5.73,12.36-13.54,24.3-18.93,36.76-1.13,2.6-4.28,9.69-3.95,12.15.38,2.75,4.69.1,6.17-.74,7.2-4.11,19.82-18.51,24.32-25.66,5.17-8.21,7.58-16.28,15.8-22.69,4.71-3.68,16.98-8.65,21.08-2.15,5.77,9.14-8.97,21.43-16.64,24.41-2.3.89-7.31,1.47-8.33,3.16-.87,1.45-3.48,9.93-3.73,11.78-3.23,23.79,17.89,7.02,25.42-1,10.22-10.89,14.84-25.26,26.12-34.77,6.53-5.5,15.74-9.95,23.75-4.78l3.25,3.92,16.01-32.55c.46-1.02-1.3-1.15-1.98-1.27-15.44-2.76-47.36-7.51-59.67,3.4-2.32,2.06-3.17,5.28-6.62,4.58-.29-4.7,7.11-9.86,11.1-11.59,8.3-3.59,23.13-3.3,32.27-2.76,4.09.24,26.03,3.86,27.78,2.77,6.32-12.52,13.31-25.42,21.45-36.85,8.05-11.3,26.06-31.85,40.44-33.66,5.7-.72,12.39,3.71,13.41,9.48,4.29,24.42-25.98,55.47-47.76,62.45-5.89,1.89-11.51,2.15-17.41,3.27-8.01,15.61-16.39,31.18-23.36,47.3-5.23,12.1-16.59,38.89-13.29,51.41,2.13,8.09,12.38,2.63,16.79-.23,14.87-9.63,25.55-26.64,34.68-41.44,1.69-1.12,3.62-.18,3.04,2.14-.53,2.11-7.34,12.08-9.05,14.54-7.11,10.18-22.56,28.92-34.93,31.71-25.98,5.84-20.43-31.27-13.8-45.1-3.2,3.44-5.59,7.61-8.63,11.19-3.57,4.21-10.6,12.27-16.36,12.41-9.35.23-11.13-11.31-9.48-18.43-9.11,9.37-18.37,21.04-33.02,19.52-7.07-.73-11.1-6.84-11.73-13.56-.22-2.34.77-4.3.23-6.54-5.58,7.49-22.16,26.75-32.48,18.12-3.15-2.63-3.17-7.1-2.84-10.92.21-2.46,1.38-4.81,1.43-7.19-5.54,5.55-10.69,11.56-16.68,16.64-6.48,5.5-19.42,16.68-27.29,7.79-.7-.79-1.51-1.74-1.84-2.76-3.34-10.22,7.38-25.49,11.72-34.5.97-2.01,4.74-9.64,4.97-11.15.38-2.41-3.43-4.78-4.79-6.46-11.56,17.51-23.07,36.67-39.05,50.56-4.81,4.18-14.65,11.08-20.7,5.74-6.35-5.61-1.41-16.5,1.34-22.8,4.12-9.42,10.05-18.01,13.8-27.62.18-1.78-3.79-4.63-4.79-6.44-8.42,12.39-15.93,25.46-25.84,36.76-4.11,4.69-14.11,15.37-19.93,16.83-13.94,3.51-11-14.64-8.51-22.58-1.49-.35-1,.44-1.48,1.08-3.76,5.06-12.56,16.82-18.94,17.83-7,1.11-11.21-3.45-11.68-10.09-.14-1.95.4-3.53.22-5.38-3.53,5.05-6.85,10.36-10.65,15.2s-11.65,15.04-17.56,15.76c-12.3,1.5-10.01-16.12-7.7-23.5,2.68-4.12,5.61-14.15,7.94-19.35,3.71-8.26,7.95-16.31,11.58-24.61.22-.74-.12-1.13-.84-.84-2.87,1.12-10.93,10.41-13.16,13.27-5.08,6.49-10.1,14.53-14.72,21.47-2.17,3.26-5.18,9.91-7.46,12.36ZM631.95,288.29c17.14-.61,32.22-10.61,43.38-22.96,7.47-8.27,21.03-29.93,15.08-40.95-4.62-8.54-15.16,1.02-19.34,5.09-16.85,16.42-27.26,38.83-39.12,58.82ZM400.3,300.49c-3.23-3.49-6.84,6.79-6.8,9.93.01.94.94,6.91,1.2,7.17.91.91,1.01-.37,1.28-.75,2.34-3.37,7.6-12.81,4.33-16.35ZM449.12,300.52c-2.59-2.38-5.26,2.01-6.01,4.31-1.5,4.64-.51,8.77.42,13.34,3.1-2.97,9.28-14.25,5.59-17.65ZM348.59,324.06c-2.31-2.15-5.49-.57-7.61,1-8.47,6.27-22.67,31.87-23.77,42.29-.19,1.79-.03,3.6-.07,5.38.87.21,1.35-.2,2.05-.53,6.95-3.31,26.99-29.32,29.83-36.81,1.12-2.95,2.17-8.93-.42-11.33ZM528.55,344.59c7.26-.78,15.35-7.22,18.84-13.61,5.04-9.23-2.14-9.74-7.93-3.91-1.44,1.45-11.97,16.58-10.92,17.51ZM564.74,372.17c2.68,2.83,17.03-15.28,18.61-17.29,4.24-5.41,13.86-17.88,14.66-24.41.56-4.53-1.48-8.03-6.43-7-8.12,1.68-20.55,24.17-23.41,31.74-2.03,5.37-3.84,11.16-3.43,16.96ZM233.84,352.06l.3-1.71c-.88.59-1.43,1.81-.3,1.71ZM340.41,354.94v.57c.37-.19.37-.38,0-.57ZM339.83,356.08v.57c.37-.19.37-.38,0-.57Z"/>
      <path class="cls-1" d="M716.47,60.9c-14.5,25.41-30.88,50.14-41.71,77.49-1.95,4.92-6.82,15.8-5.22,20.69.7,2.15,2.41,1.96,4.36,1.42,7.88-2.18,30.85-26.14,36.08-33.43,4.33-6.04,11.83-23.35,16.8-26.86,4.15-2.94,9.44-.65,9.51,4.29-2.44,5.77-25.79,44.69-22.76,47.66,4.37.46,8.34-2.79,11.67-5.27,4.87-3.64,9.68-8.66,13.9-13.1,7.5-7.89,14.42-14.9,16.37-26.14-1.36-.1-2.01,2.51-3.72,2-4.84-1.42,6.4-10.09,9.44-10.67,2.3-.44,5.49.46,6.49,2.77,3.24,7.55-7.17,26.18-9.9,33.75,7.23-8.45,20.32-31.6,31.92-33.28,4.5-.65,8.3,2.49,9.19,6.83,3,14.74-16.37,34.61-17.55,48.01-.2,2.31,1.09,1.55,2.71.98,7.12-2.52,22.87-20.84,27.72-27.43,8.92-12.11,12.35-25.92,28.59-31.73,8.32-2.98,20.5-1.54,19.11,9.63,11.92-1.84,6.11,13.55,4.17,19.98-2.72,9.05-6.8,17.66-9.92,26.56,7.8-.84,15.28-3.43,23.25-2.86,37.11,2.66,30.61,42.02,1.12,51.08-2.5.77-11.6,2.8-13.49,1.5-.83-.57-.83-2.36,0-2.93.88-.6,5.84-.17,7.63-.41,11.58-1.55,25.26-13.82,25.74-25.96.61-15.48-13.02-20.15-26.16-19.26-3.08.21-17.69,2.55-19.8,3.75-.72.41-.91.94-1.29,1.58-3.55,5.9-6.45,15.79-9.72,22.45-12.22,24.86-33.26,55.47-60.1,65.71-23.9,9.11-44.07-5.66-33.39-31.09,12.68-30.2,63.09-51.05,92.39-60.42,5.26-10.54,9.14-21.79,12.65-33.01-6.41,7.77-12.4,17.86-20.4,24.11-12.85,10.04-21.24,1.77-20.66-12.62-2.2,2.58-4.08,5.5-6.31,8.05-4.95,5.65-17.73,19.32-25.73,17.67-11.17-2.3-5.09-18.83-2.24-25.54,3.35-7.9,10.93-18.98,12.92-26.72.29-1.11.54-2.17.39-3.34-.46-.02-.93-.04-1.4.02-6.51.9-19.13,18.91-23.19,24.49-4.55,6.27-11.02,18.21-15.95,23.11-3.28,3.27-9.24,1.55-9.49-2.53-.2-3.25,4.05-13.45,5.33-17.13.2-.57.97-1.74.17-2.13-9.32,7.03-20.89,25.03-34.33,22.28-8.35-1.71-5.45-12.74-4.12-18.23.14-.56.7-1.31-.31-1.17-.03.65-.42,1.27-.85,1.74-6,6.63-23.1,24.63-31.31,26.14-14.92,2.75-14.74-11.65-12.98-22.17.25-1.52,1.11-3.05,1.35-4.4.15-.87.5-1.52-.74-1.32-5.51,6.31-11.77,13.23-18.41,18.37-2.98,2.31-7.1,5.41-10.87,5.79-15.05,1.52-14.51-12.49-10.66-23.01-1.63.81-5.29,9.06-7.2,6.34-.52-.74-.27-1.58-.02-2.35.94-2.9,7.61-8.66,9.63-12.21,2.97-5.24,5.25-12.26,8.02-17.83,10.2-20.53,21.96-40.31,34.39-59.53-14.03-1.34-28.04-3.1-42.15-1.66-7.56.6-28.4,6.07-30.54,14.27-.68,2.59.84,7.47-1.73,8.06-2.34.54-2.86-1.79-3.09-3.79-1.79-15.48,26.09-22.91,37.65-24.29,14.39-1.72,28.68.97,42.91,2.73,4.2-3.97,4.76-10.16,11.9-8.28,7.87,2.08-.6,9.85-.02,10.64l25.45,5.21c2.6-3.6,4.79-7.54,7.4-11.12,1.49-2.04,7.43-10.25,9.09-11.01,3.24-1.49,8.03,1.44,7.37,5.02l-11.98,19.65.99.75c12.83,2.69,25.6,5.8,38.53,8,17.13,2.92,41.74,8.03,57.39-.87,1.83-1.04,5.3-5.43,6.82-2.4.95,1.89-3.33,4.78-4.74,5.62-13.52,8.03-36.92,4.94-51.99,2.82-16.91-2.37-33.51-6.83-50.35-9.52ZM704.9,57.94l-25.76-4.51c-11.77,20.5-24.77,40.4-35.05,61.74-3.75,7.79-14.53,30.39-14.99,37.91-.2,3.37.47,4.08,3.57,3.52,7.65-1.39,30.99-26.14,35.72-33.21,5.44-8.12,8.88-20.13,14.58-28.5l21.93-36.95ZM850.1,101.72c-10.45,1.77-26.52,30.78-28.32,40.64-1.97,10.8,2.64,8.02,8.36,3.19,5.49-4.62,25.75-29.43,26.43-35.61.5-4.51-1.15-9.12-6.48-8.22ZM746.85,130.33l-.3,1.71c.88-.59,1.43-1.81.3-1.71ZM663.83,134.34v.57c.37-.19.37-.38,0-.57ZM838.18,163.07c-25.01,8.44-52.84,19.97-72.39,38.19-9.99,9.31-26.26,32.41-11.1,43.86s36.35-6.19,46.13-17.44c15.86-18.25,27.12-42.87,37.35-64.61Z"/>
      <path class="cls-1" d="M297.04,5.66c.79,1.05,1.8,3.81,2.3,5.17.36.98.9,1.87,1.15,2.87.26,1.07,1.15,5.85,1.15,6.61v12.64c0,1.38-.85,5.99-1.15,7.76-1.28,7.55-6.36,18.33-6.89,24.7-1.01.5-.83,1.56-1.15,2.3-16.91,39.1-48.82,86.19-80.11,115.23-2.89,2.69-14.9,12.31-18.13,12.88-3.53.62-5.84-1.43-7.48-4.29-5.07-8.85-1.46-27.81.11-37.83,3.76-23.92,10.05-47.47,12.54-71.61l-3.91,7.86c-22.12,38.62-48.83,75.99-81.36,106.48-2.03,1.35-4.81.48-5.39-1.93,6.77-14.46,13.09-29.12,17.55-44.51,9.59-33.11,19.02-85.66-12.77-109.83C77.89,13.07,19.98,37.45,7.5,78.32c-14.84,48.6,40.56,67.13,72.4,39.08,1.76-1.55,6.24-7.73,6.88-8.08,1.56-.85,3.3.73,2.59,2.58-2.87,7.43-16,15.55-23.27,18.13-43.94,15.58-81.36-16.8-59.84-61.56C25.4,28.66,80.03,12.7,117.76,35.87c39.93,24.51,33.52,74.65,21.46,113.28l-9.64,25.4c18.39-20.95,35.72-43,50.51-66.68,6.26-10.02,18.96-30.5,20.44-41.61.4-3,.03-9.91,1.01-12.2.71-1.66,2.97-2.97,4.72-2.16,2.73,1.26,3.82,8.77,4.03,11.51,3.1,41.36-10.24,82.2-17.16,122.43.39,4.28-.98,7.76,3.9,4.46,11.88-8.04,26.58-24.68,35.97-35.84,25.96-30.86,67.7-91.57,64.64-133.02-.52-7.11-4.3-20.39-13.83-17.8-1,.27-5.2,3.74-5.73,1.15-.47-2.32,4.14-3.92,5.75-4.29,2.97-.69,4.37-.76,7.29.46,1.39.58,5.07,3.58,5.92,4.71Z"/>
      <path class="cls-1" d="M533.13,134.34c-4.34,3.19-8.03,7.12-12.45,10.23-2.18,1.54-10.83,5.83-11.53,6.57-1.29,1.36-2.2,7.59-4.16,9.34,3.74.65,17.48,1.95,19.28,5.46.54,1.06-.5,3.02-2.05,2.63-1.68-.41-3.91-1.75-5.87-2.23-2.32-.57-11.94-2.49-13.39-1-.72.73-2.49,6.17-3.22,7.69-15.11,31.3-36.57,70.57-72.43,80.95-28.09,8.13-49.75-10.83-36.16-39.03,9.98-20.7,36.36-36.18,57.24-43.86,14.59-5.37,29.81-8.4,45.16-10.7,4.51-10.65,8.92-21.39,12.58-32.37-7.07,7.69-13.58,20.18-23.55,24.41-5.11,2.16-9.82,2.01-13.11-2.96-8.14-12.29,7.12-36.85,16.87-44.98,6.07-5.06,16.89-9.66,24.43-5.5,5.23,2.88,3.68,8.6,4.57,9.51.23.24,3.66-1.81,5.67,2.08,2.23,4.32-2.07,15.1-3.69,19.72s-4.59,10.03-6,14.69c-.22.74.12,1.13.84.84,1.87-.75,6.76-4.35,8.61-5.75,2.36-1.79,5.6-4.55,7.78-6.58,11.46-10.7,14.84-28.58,31.02-34.47,13.96-5.08,22.25,3.69,12.35,15.8-4.04,4.94-10.62,8.9-16.64,10.93-1.9.64-5.59.62-6.53,2.08-1.53,2.38-4.79,14.76-4.65,17.62.27,5.42,2.41,7.12,7.71,6.69,16.53-1.33,42.07-32.79,50.86-46.22,3.1-4.73,5.36-10.19,8.88-14.54,2.98.91,1.93,2.66.98,4.87-7.21,16.72-32.86,47.01-48.92,55.63-16.74,8.98-34.18,4.09-30.46-17.53ZM506.59,101.72c-7.14.54-17.26,15.9-20.66,21.9s-9.68,18.86-8.52,25.37c.52,2.93,4.12-.11,5.69-1.2,6.84-4.74,24.1-26.49,27.37-34.1,1.85-4.32,3.05-12.5-3.89-11.98ZM572.07,102.31c-4.38-4.4-13.21,7.73-15.27,10.6-.71.99-6.41,9.45-5.85,9.94,7.26.4,21.88-10.89,21.86-18.08,0-.66-.29-2.01-.74-2.46ZM491.2,165.37c-3.39-2.48-38.11,8.3-43.8,10.48-19.8,7.6-47.56,24.27-54.45,45.51-6.81,20.97,7.99,35.78,29,30.15,19.06-5.11,33.99-23.8,44.22-39.65,9.53-14.76,17.5-30.64,25.04-46.48Z"/>
      <path class="cls-1" d="M348.16,75.17c12.26.02,5.03,17.57.57,22.98l.57,1.72c.86,2.02,6.34,4.86,8.28,7.52,2.89,3.96,2.28,6.46.56,10.81-4.39,11.08-12.94,21.78-17.56,32.99-1.33,3.24-5.1,10.66,1.57,8.46,8.14-2.69,26.25-23.61,31.51-31.1,2.94-4.18,4.35-8.77,6.65-12.59.44-.72,2.15-3,2.87-4.02.42-.59,1.28-1.76,1.72-2.3,3.7-4.56,11.16-11.04,17.1-11.91,10.63-1.57,14.23,5.08,9.62,14.22-3.2,6.35-11.68,11.63-18.22,13.95-1.76.63-4.38.29-5.58,1.89-.67.89-2.84,7.87-3.22,9.42-2.43,9.82-2.8,17.66,10.07,14.09,5.49-1.53,12.77-7.28,16.95-11.2,2.63-2.47,12.22-14.67,13.5-15.26,1.16-.53,2.5.09,2.8,1.28.27,1.1-.86,2.14-1.43,2.99-5.51,8.2-18.88,21.04-27.99,24.86-11.58,4.86-25.8,2.28-26.26-12.49-.05-1.64.53-2.97.62-4.55.03-.63.31-1.6-.59-1.45-5.77,8.44-20.42,26.12-30.89,27.42-5.52.69-9.75-2.82-10.34-8.35-1.11-10.48,10.4-27.63,14.72-37.26,2.67-5.94,5.07-8.17-1.92-12.28-6.7,10.91-13.27,22.06-21.57,31.87s-24.1,24.67-38.47,17.54c-1.87-.93-4.97-4.4-5.74-6.32s-1.04-4.3-1.15-6.32c-.45-8.48,3.87-17.69,8.04-24.7.24-.41.4-.87.57-1.15.91-1.45,2.47-3.86,3.45-5.17.15-.19.4-.36.57-.57,3.27-4.21,6.75-7.46,11.3-10.24,1.12-.68,3.46-1.06,4.21-1.82l1.15-.57c1.32.09,2.7,0,4.02,0h2.3c.69.49,2.57,1.07,3.45,1.15,1.01,1.41,2.04,2.19,2.3,4.02,1.77,12.34-14.19,23.13-25.18,24.22-1.8,5.3-4.26,10.91-4.69,16.56-.06.73-.03,1.56,0,2.3.3,6.48,2.97,7.4,9.19,5.74,1.5-.4,3.19-.86,4.02-2.3,1.19-.02,1.85-.26,2.85-.88,2.24-1.41,4.99-4.25,6.92-6.01.42-.38.76-.78,1.15-1.15,2.05-1.95,6.88-6.3,8.04-8.62.37-.73.66-1.46.57-2.3,2.02.46,1.43-.46,1.99-1.15,4.27-5.34,7.13-10.5,10.65-16.08.12-.18,1-.51,1.4-1.16.98-1.58,5.9-9.17,5.98-10.15.06-.77-2.3-3.16-2.78-4.2-2.27-4.89-2.3-12.79.7-17.4.13-.2,3.13-3.15,3.32-3.28.92-.61,2.41-.86,3.45-1.15.19-.05.42-.55.57-.57.49-.08,1.18,0,1.72,0ZM346.43,95.85c.3-1.83,1.63-3.11,2.41-4.77,1.1-2.33,5.38-12.66.72-13.06s-5.64,10.33-5.36,13.47c.05.6.95,5.58,2.22,4.37ZM295.32,122.85c6.56.36,20.89-12.34,20-18.55-.16-1.09-1.36-2.61-2.5-2.72-5.9-.58-15.95,16.04-17.5,21.27ZM390.1,122.85c6.77.43,20.53-11.83,20.16-18.09-.13-2.11-2.06-3.41-4.07-2.92-5.2,1.27-14.36,15.7-16.08,21.01Z"/>
      <path class="cls-1" d="M707.61,256.25c1.18-.34,4.26-.27,5.5,0,4.6,1.02,2.29,6.08,1.26,9.06-4.89,14.17-13.86,31.81-20.28,45.78-8.02,17.44-16.6,34.66-25.11,51.87-.88,1.62-4.15,1.84-4.31-.27,11.7-35.1,25.38-69.57,40.12-103.52.53-.89,1.86-2.65,2.82-2.92Z"/>
      <path class="cls-1" d="M743.23,74.69c2.42-.39,4.63,3.33,4.79,5.37.32,4.08-5.47,9.4-9.39,8.21-.52-.16-3.35-2.87-3.57-3.35-1.7-3.65,5.24-9.76,8.17-10.24Z"/>
      <path class="cls-1" d="M660.52,372.87c8.31-1.62,8.04,11.33.98,12.48-8.83,1.45-8.04-11.11-.98-12.48Z"/>
      <path class="cls-1" d="M511.14,296.46c.9-.27,2.22-.32,3.04.18.21.13,3.05,3.52,3.16,3.74,1.41,3.03-3.68,8.14-6.35,8.57-3.67.59-7.69-1.77-6.45-5.88.19-.64,5.96-6.41,6.6-6.61Z"/>
    </g>
  </g>
</svg>