<svg xmlns="http://www.w3.org/2000/svg" width="512" height="512" viewBox="0 0 512 512">
<path d="M0 0 C1.09248047 0.56654297 1.09248047 0.56654297 2.20703125 1.14453125 C11.89991454 6.92533192 19.88482501 16.32203984 27.13671875 24.8515625 C29.65251317 27.75237367 32.26369632 30.56024438 34.875 33.375 C39.19780607 38.03911539 43.47817041 42.73694601 47.72265625 47.47265625 C50.29809775 50.33082203 52.89685764 53.16710261 55.5 56 C59.59169207 60.45332617 63.64822977 64.93659888 67.6875 69.4375 C70.27615003 72.30600409 72.88585146 75.1547665 75.5 78 C79.59423276 82.45615389 83.6563215 86.93941815 87.69140625 91.44921875 C89.78191131 93.7590323 91.90504517 96.0348776 94.03564453 98.30761719 C121.91402375 128.23487764 133.32907742 162.51224388 132.17480469 203.20654297 C130.78691451 233.32531061 115.85337759 260.35697101 95.62890625 281.93359375 C95.02432587 282.57965576 94.41974548 283.22571777 93.79684448 283.89135742 C87.51111803 290.57322489 81.06301134 297.08872637 74.56591797 303.56445312 C72.60134799 305.52358656 70.64228552 307.48811644 68.68359375 309.453125 C60.58021706 317.56218769 52.5323406 325.45768997 43.125 332.0625 C42.20968506 332.70517822 42.20968506 332.70517822 41.27587891 333.36083984 C39.52273925 334.58208145 37.76239836 335.79217669 36 337 C35.20078125 337.55816406 34.4015625 338.11632812 33.578125 338.69140625 C15.80082977 350.25925616 -6.91414345 356.142433 -27.94828796 356.15390015 C-28.93402182 356.1582824 -29.91975567 356.16266465 -30.93536025 356.1671797 C-34.22993945 356.1805069 -37.52449193 356.1867328 -40.8190918 356.19287109 C-43.18486144 356.20077671 -45.55062989 356.20904594 -47.91639709 356.21765137 C-55.00739786 356.24155494 -62.09839939 356.25678779 -69.18942782 356.26971143 C-71.1943374 356.27342845 -73.1992463 356.27740123 -75.20415521 356.2814641 C-87.67336953 356.30669889 -100.14258507 356.32873625 -112.61181927 356.34119225 C-115.49536328 356.34412157 -118.37890725 356.34708329 -121.26245117 356.35009766 C-121.97907371 356.35084371 -122.69569625 356.35158976 -123.43403462 356.35235842 C-135.03943931 356.36500865 -146.6446907 356.39823293 -158.25002375 356.43989949 C-170.18323524 356.48238993 -182.11636835 356.50589518 -194.04965526 356.51111281 C-200.74248001 356.51451819 -207.43502808 356.52674347 -214.12778282 356.55921555 C-220.42584617 356.58933643 -226.72349211 356.59559326 -233.02161217 356.58383179 C-235.32738808 356.58361141 -237.63318361 356.59188649 -239.93889236 356.60948563 C-264.35690152 356.78565651 -264.35690152 356.78565651 -275.375 348.75 C-283.22450438 340.5267097 -287.59300844 331.65395216 -287.4375 320.25 C-287.42992676 319.46431641 -287.42235352 318.67863281 -287.41455078 317.86914062 C-287.06623388 305.45177035 -281.85608219 293.79342202 -273.5859375 284.49609375 C-262.32325933 273.87144907 -249.6801771 269.69618623 -234.6875 267.3125 C-233.3126725 267.09186759 -231.93787678 266.87103703 -230.56311035 266.65002441 C-214.83667725 264.12738636 -199.10584891 261.63244596 -183.37509537 259.13692856 C-179.71151311 258.55570725 -176.04795756 257.97431764 -172.38439941 257.39294434 C-165.25629166 256.26180289 -158.12815549 255.13084061 -151 254 C-152.20402513 252.80012294 -152.20402513 252.80012294 -153.432374 251.57600594 C-172.97975669 232.09527664 -192.51844396 212.60585933 -212.04808903 193.10734749 C-221.49274801 183.67814518 -230.9401893 174.25177058 -240.39428711 164.83203125 C-248.63623868 156.62001862 -256.87287035 148.40271337 -265.10320657 140.17905891 C-269.45966298 135.8265071 -273.8187039 131.47661781 -278.18412971 127.13306046 C-282.29703666 123.04058952 -286.4027673 118.94105205 -290.5032196 114.83610344 C-292.00538555 113.33475951 -293.51010387 111.8359641 -295.01762199 110.33999443 C-308.01960646 97.43270403 -320.14847165 84.8790602 -320.3125 65.5 C-320.34226463 54.4253533 -317.40542982 46.0380822 -311 37 C-310.401875 36.13375 -309.80375 35.2675 -309.1875 34.375 C-301.43822408 25.96150043 -290.53406953 20.5956666 -279.08984375 19.796875 C-263.55431732 19.56586345 -252.21380201 23.81349574 -240.92749023 34.63427734 C-239.21098027 36.35805587 -237.505005 38.09237571 -235.80859375 39.8359375 C-234.41562148 41.24117788 -233.02264727 42.64641635 -231.6295557 44.05153847 C-229.71062456 45.9921948 -227.80124055 47.94211427 -225.8916626 49.89196777 C-222.51577257 53.33487967 -219.12426726 56.7624179 -215.7334137 60.19058228 C-213.93465711 62.01104711 -212.13940749 63.83498505 -210.3480072 65.66268921 C-209.14018333 66.88999252 -209.14018333 66.88999252 -207.90795898 68.14208984 C-207.19945297 68.86488129 -206.49094696 69.58767273 -205.76097107 70.33236694 C-204.09094364 72.07548397 -204.09094364 72.07548397 -202 73 C-201.88527344 72.27296875 -201.77054687 71.5459375 -201.65234375 70.796875 C-199.4868667 61.51255425 -192.47773874 54.45993622 -185 49 C-174.70613535 42.97933737 -162.48886778 40.03479672 -150.7265625 42.7578125 C-144.6668962 44.51885969 -139.29057789 46.55497254 -134 50 C-133.61070312 49.17757812 -133.22140625 48.35515625 -132.8203125 47.5078125 C-126.0395111 33.97745763 -117.24771377 25.2763204 -102.6953125 20.1953125 C-90.14372333 16.83902675 -76.93855818 18.91137568 -65.6875 25.25 C-64.800625 25.8275 -63.91375 26.405 -63 27 C-62.87625 26.46632813 -62.7525 25.93265625 -62.625 25.3828125 C-59.84109051 15.32593947 -52.92855239 7.29099401 -44 2 C-30.25791916 -5.03349895 -14.19617793 -7.43832794 0 0 Z M-36.375 27.4375 C-40.1994201 32.35312692 -41.47102212 36.45241079 -41.31640625 42.66796875 C-40.57807084 48.10977421 -37.55213025 52.33060642 -34.3125 56.625 C-32.03306121 59.74423203 -31 62.03374838 -31 66 C-32.18382195 69.88030529 -33.15931962 72.27608079 -36.25 74.9375 C-39.80239086 76.31001465 -42.21398443 76.46494928 -46 76 C-50.38856674 73.4185556 -53.80615891 70.40211862 -57.3359375 66.75390625 C-58.32800264 65.74141655 -59.32019409 64.7290506 -60.3125 63.71679688 C-61.84415404 62.141808 -63.37318589 60.56437832 -64.89941406 58.98413086 C-75.78523248 47.34584181 -75.78523248 47.34584181 -90.54296875 42.86328125 C-96.61626577 43.20122306 -101.71128265 45.71128265 -106 50 C-109.90904812 55.42923349 -111.20175105 60.29974132 -111 67 C-109.01845641 77.23797523 -99.69041814 84.33780066 -92.56640625 91.41015625 C-91.80215332 92.16949463 -91.03790039 92.92883301 -90.25048828 93.71118164 C-88.7277564 95.2180015 -87.19891745 96.71867873 -85.66357422 98.21264648 C-84.95861816 98.90559814 -84.25366211 99.5985498 -83.52734375 100.3125 C-82.89562256 100.92738281 -82.26390137 101.54226562 -81.61303711 102.17578125 C-78.95868256 105.17764854 -78.06836921 107.3846771 -77.625 111.375 C-78.08366327 115.80874497 -78.96354514 117.73581102 -82 121 C-84.66417681 122.3638736 -87.00310183 123.08679262 -90 123 C-95.07671774 121.14988937 -98.26862342 119.22361106 -102.10571289 115.31665039 C-102.56526871 114.85446609 -103.02482452 114.3922818 -103.49830627 113.91609192 C-104.99922009 112.40230847 -106.48563692 110.87507916 -107.97265625 109.34765625 C-109.02341731 108.28433346 -110.0752293 107.22204826 -111.1280365 106.16075134 C-113.88796928 103.37431853 -116.63652564 100.57695685 -119.38189697 97.77618408 C-123.77615182 93.29543255 -128.18400199 88.8281605 -132.59856987 84.36742973 C-134.13111805 82.81457913 -135.65657295 81.25501192 -137.18141174 79.69459534 C-138.12859611 78.73374268 -139.07600768 77.77311393 -140.02368164 76.81274414 C-141.25109825 75.56056847 -141.25109825 75.56056847 -142.50331116 74.28309631 C-147.8206477 69.42065961 -152.82538051 66.58468886 -160 66 C-166.58508414 66.57574506 -171.53606514 69.53606514 -176.1875 74.1875 C-180.29745331 80.56501376 -181.54669835 85.87550871 -180.12890625 93.34765625 C-176.437863 102.01969213 -168.76086241 108.48900952 -162.16796875 114.9921875 C-161.12467495 116.02919786 -160.08190331 117.06673376 -159.03962708 118.10476685 C-156.3169776 120.81421749 -153.58878624 123.51801021 -150.85888672 126.22015381 C-146.47150681 130.56411494 -142.09111855 134.91510189 -137.71380043 139.26919937 C-136.18666582 140.78611554 -134.65616753 142.29957619 -133.12528992 143.81271362 C-132.20375626 144.72771637 -131.2822226 145.64271912 -130.33276367 146.58544922 C-129.51813156 147.39182831 -128.70349945 148.1982074 -127.86418152 149.02902222 C-124.46998207 152.61767045 -124.61302729 155.74122047 -124.640625 160.515625 C-125 163 -125 163 -127.375 166.0625 C-131.51295114 169.11670204 -133.81634982 169.42488936 -139 169 C-146.54662923 165.70708565 -151.83306722 159.5362047 -157.515625 153.76147461 C-158.66716732 152.60252995 -159.8194079 151.44427873 -160.97229004 150.28666687 C-163.44557676 147.80054687 -165.91417402 145.30989562 -168.37927246 142.81565666 C-172.27961628 138.8698393 -176.19203193 134.93614115 -180.10644531 131.00428772 C-189.82494996 121.23878975 -199.52817994 111.45815182 -209.22705078 101.67315674 C-216.77048663 94.06299955 -224.3183581 86.45736258 -231.88018417 78.86547285 C-235.76984101 74.95933497 -239.64993289 71.04401342 -243.52302551 67.12145412 C-245.93598511 64.68179954 -248.35727761 62.25054808 -250.78092957 59.82151985 C-251.90066815 58.69590233 -253.01696258 57.56684621 -254.12947083 56.43408203 C-255.65233787 54.88446672 -257.18722656 53.3477982 -258.72558594 51.81358337 C-260.00752838 50.52026549 -260.00752838 50.52026549 -261.31536865 49.20081997 C-265.92483379 45.42205052 -270.78712873 43.37236645 -276.890625 43.65625 C-283.64242884 44.75654396 -288.70507989 47.80998651 -292.84765625 53.21484375 C-296.01712781 58.12483868 -296.69429968 63.25523011 -296 69 C-293.18553475 78.27117966 -285.34643495 84.80464693 -278.63516235 91.47163391 C-277.92751594 92.17872362 -277.21986953 92.88581333 -276.49077928 93.61432999 C-274.14026666 95.96182827 -271.78619865 98.30572745 -269.43212891 100.6496582 C-267.7379285 102.34029926 -266.04396495 104.03117771 -264.35021973 105.72227478 C-260.71377858 109.35218409 -257.07583632 112.98057983 -253.43675613 116.6078434 C-248.17322413 121.85434186 -242.91345425 127.10459965 -237.65476708 132.35595372 C-229.11824937 140.88055098 -220.58022308 149.40363522 -212.04052734 157.92504883 C-211.53036242 158.43412363 -211.0201975 158.94319842 -210.49457304 159.46769973 C-203.24046428 166.70616851 -195.98487657 173.94315309 -188.72871296 181.17956194 C-188.21672889 181.69015269 -187.70474483 182.20074344 -187.17724609 182.72680664 C-186.66588732 183.23677188 -186.15452855 183.74673712 -185.62767406 184.27215586 C-177.10918834 192.76762779 -168.59454762 201.2669413 -160.08306444 209.76942891 C-155.30675779 214.54040475 -150.52849535 219.30939026 -145.74547195 224.07363319 C-141.25481331 228.54688609 -136.76870027 233.02464578 -132.28610229 237.50597572 C-130.63701666 239.15290652 -128.98620023 240.79810626 -127.33356857 242.44147873 C-125.08541299 244.67752006 -122.84343033 246.91957067 -120.60293579 249.1632843 C-119.94138036 249.81833193 -119.27982494 250.47337955 -118.59822237 251.1482771 C-118.00140418 251.7484607 -117.40458598 252.34864429 -116.78968239 252.96701527 C-116.01220097 253.74254441 -116.01220097 253.74254441 -115.21901286 254.53374082 C-112.64237914 257.63298035 -112.85283975 261.00470272 -112.76953125 264.8671875 C-113.06506312 267.60210951 -113.73464541 269.55018883 -115 272 C-124.18224147 276.71340448 -137.84471304 276.82932039 -147.93370247 278.37382507 C-151.47125546 278.91560745 -155.00763716 279.46453154 -158.54380798 280.01525879 C-167.32113797 281.38085394 -176.10020269 282.73514745 -184.87945557 284.08831787 C-192.31651463 285.23489279 -199.75275669 286.38651288 -207.18795586 287.54508972 C-210.65629577 288.08344945 -214.12571527 288.61441508 -217.5952301 289.1451416 C-219.73940842 289.47854293 -221.88353068 289.81230511 -224.02758789 290.14648438 C-224.97906708 290.28994797 -225.93054626 290.43341156 -226.91085815 290.58122253 C-238.48735672 292.40521217 -249.97286252 294.34420723 -257.64453125 303.94921875 C-261.75087223 310.16198248 -263.98937644 316.57967669 -263 324 C-261.35778358 327.28443283 -260.17131476 329.3491624 -256.93511295 331.1473484 C-252.83511326 332.33840011 -248.9749607 332.28247522 -244.72569275 332.26742554 C-243.31937532 332.27422221 -243.31937532 332.27422221 -241.88464743 332.28115618 C-238.74067523 332.29382336 -235.59687576 332.29217823 -232.45288086 332.29052734 C-230.19890622 332.29651164 -227.94493363 332.30331695 -225.69096375 332.31088257 C-219.5620023 332.32857208 -213.4330967 332.33323954 -207.3041122 332.33451414 C-203.46878845 332.33593604 -199.63347887 332.34020665 -195.79815865 332.34550858 C-183.09069363 332.36307113 -170.38327505 332.37234758 -157.67580085 332.37084763 C-156.99089936 332.37076772 -156.30599788 332.3706878 -155.6003418 332.37060547 C-154.91459289 332.37052371 -154.22884398 332.37044195 -153.52231479 332.37035771 C-142.44599232 332.36954743 -131.3698067 332.38861742 -120.29352372 332.4168822 C-108.89368658 332.44574011 -97.49394351 332.45905047 -86.09406382 332.45769465 C-79.70505663 332.45718709 -73.31620386 332.46275406 -66.92722893 332.48405075 C-60.90333051 332.5035798 -54.87973129 332.50345823 -48.85582161 332.48901749 C-46.65984784 332.4869455 -44.46385464 332.4915326 -42.26791382 332.5037384 C-25.26886269 332.59200511 -7.90019956 331.52965732 7.8125 324.375 C8.97193115 323.86404785 8.97193115 323.86404785 10.15478516 323.34277344 C30.57361704 314.00532861 45.57945535 297.62306291 61.23950195 282.00073242 C63.68709566 279.56290272 66.14518643 277.13598169 68.60351562 274.70898438 C85.50940914 257.91857221 98.54664999 241.27117124 105 218 C105.3196875 216.8553125 105.639375 215.710625 105.96875 214.53125 C112.22293902 188.35631076 107.03418778 161.33761223 93.96484375 138.14453125 C87.59174166 127.94503388 79.62334041 119.19920357 71.39453125 110.48730469 C69.37537176 108.33381736 67.40563644 106.13759538 65.4375 103.9375 C60.33757012 98.2494701 55.16891908 92.62520987 50 87 C44.07230436 80.54903192 38.1640628 74.08281284 32.3125 67.5625 C29.72384997 64.69399591 27.11414854 61.8452335 24.5 59 C20.41331218 54.55205801 16.36084304 50.07504081 12.328125 45.578125 C10.61785026 43.6841966 8.90025771 41.7991359 7.171875 39.921875 C6.68654297 39.39464844 6.20121094 38.86742187 5.70117188 38.32421875 C4.32811843 36.8347422 2.95317818 35.34700563 1.578125 33.859375 C-0.22239931 31.86242986 -1.9397764 29.86735595 -3.6328125 27.78515625 C-7.29065669 23.48145508 -11.46979507 20.38249112 -17.19921875 19.76171875 C-25.34802852 19.51866163 -30.84324941 21.31783389 -36.375 27.4375 Z " fill="#ffffff" transform="translate(380,98)"/>
<path d="M0 0 C1.74626221 1.50117277 3.47636056 3.02141168 5.1875 4.5625 C5.95578125 5.24828125 6.7240625 5.9340625 7.515625 6.640625 C17.38840483 15.96108148 29.7056269 30.73793707 31.1875 44.5625 C30.16395117 49.57788925 28.26313985 52.46146968 24.1875 55.5625 C20.20829207 56.89984205 17.08788905 56.81460893 13.0625 55.6875 C8.29882915 52.16652589 5.70244815 47.29745065 2.86328125 42.171875 C-7.17205721 24.34405309 -23.75375681 11.61803026 -43.1875 5.5 C-65.46042231 -0.2909598 -87.65714516 2.03793855 -107.63525391 13.61914062 C-126.19547777 25.05508205 -138.72337625 42.46826942 -144.125 63.5625 C-148.9342782 84.25633619 -145.62058122 105.60274301 -134.84375 123.90625 C-126.9210433 135.9625428 -117.38605856 145.42467199 -104.8125 152.5625 C-102.95526512 153.64056481 -101.10096136 154.7236992 -99.25 155.8125 C-98.44433594 156.27140625 -97.63867188 156.7303125 -96.80859375 157.203125 C-93.75499861 159.28267707 -92.88433053 161.27517789 -92 164.8125 C-91.74251082 169.96228354 -93.0337006 173.58605622 -96.5 177.4375 C-100.38282619 179.32644247 -104.56597928 180.16706313 -108.77026367 179.03564453 C-110.77004522 178.18479384 -112.65623432 177.23108646 -114.5625 176.1875 C-115.25641846 175.82100342 -115.95033691 175.45450684 -116.6652832 175.0769043 C-140.74307825 162.00229832 -158.81396301 139.79757078 -167.1875 113.75 C-170.22016859 103.4757723 -171.17587191 93.49560005 -171.125 82.8125 C-171.11936035 81.5740332 -171.1137207 80.33556641 -171.10791016 79.05957031 C-170.72564666 50.25734047 -158.38704509 24.68485729 -137.8125 4.5625 C-124.89165206 -6.71926602 -110.39379941 -14.93938154 -93.8125 -19.4375 C-92.70390625 -19.75589844 -91.5953125 -20.07429688 -90.453125 -20.40234375 C-59.18998618 -28.07666629 -25.02344115 -19.97698918 0 0 Z " fill="#ffffff" transform="translate(170.8125,80.4375)"/>
</svg>
